<svg xmlns="http://www.w3.org/2000/svg" id="Layer_1" viewBox="0 0 36 36" width="36" height="36"><defs><style>.cls-1{fill:#ede9ed}.cls-2{fill:none}</style></defs><path d="M25.82 5H10.19A5.21 5.21 0 0 0 5 10.19v15.63A5.2 5.2 0 0 0 10.19 31h15.63a5.2 5.2 0 0 0 5.2-5.2V10.19A5.2 5.2 0 0 0 25.82 5zm-2.31 2.89h4.54v4.53h-4.54zm-9.19 7.34a4.66 4.66 0 0 1 7.43 0l.2.29a4.77 4.77 0 0 1 .7 2.48 4.85 4.85 0 0 1-.35 1.8 4.63 4.63 0 0 1-8.9-1.8 4.67 4.67 0 0 1 .92-2.77zM28.48 25.9a2.6 2.6 0 0 1-2.6 2.6H10.05a2.59 2.59 0 0 1-2.6-2.6V15.23h4a7.22 7.22 0 0 0-.56 2.77 7.15 7.15 0 0 0 14.29 0 7.31 7.31 0 0 0-.31-2.1 4.54 4.54 0 0 0-.23-.65h3.84z" class="cls-1"/><path d="M0 0h36v36H0z" class="cls-2"/></svg>