<svg id="Layer_1" data-name="Layer 1" xmlns="http://www.w3.org/2000/svg" viewBox="0 0 194 64"><defs><style>.cls-1{fill:#1b938f;}.cls-2{fill:none;}</style></defs><title>clayworks-logo</title><path class="cls-1" d="M18,49.73a12.22,12.22,0,0,1-5,1.1C5.73,50.83.91,45.6.91,38.91S5.73,27,13,27a13.06,13.06,0,0,1,5,1.06v6.6a8.85,8.85,0,0,0-5-1.56,5.8,5.8,0,0,0,0,11.6,8.56,8.56,0,0,0,5-1.6Z"/><path class="cls-1" d="M27.6,50.33H21.32V18.69H27.6Z"/><path class="cls-1" d="M32.64,28.36A18.49,18.49,0,0,1,39.24,27C45.39,27,49,30,49,36.62V50.33H42.73v-1.7a6.55,6.55,0,0,1-5.09,2.2c-5.09,0-7.52-3.58-7.52-7.43a7.2,7.2,0,0,1,7.61-7.33,8.12,8.12,0,0,1,5,1.65V36.48c0-2.75-1.83-3.9-4.22-3.9a12,12,0,0,0-5.87,1.7Zm6.83,17.88a2.86,2.86,0,1,0,0-5.68,2.86,2.86,0,1,0,0,5.68Z"/><path class="cls-1" d="M70.11,28.12l-.84,2.06a23.42,23.42,0,0,0-.86,2.48l-.08.29a25,25,0,0,0-.92,6.12L57.16,59.59l-7.23-.47,5.94-10.78-7-21.6,7,.46,4,13.49,5.94-12.85,3.85.25Z"/><path class="cls-1" d="M148.34,30A6.15,6.15,0,0,1,153.75,27a11.86,11.86,0,0,1,1.78.14v6.65a7.75,7.75,0,0,0-3.34-.69c-2.2,0-3.72,1.51-3.85,3.94V50.33H142.1V27.49h6.24Z"/><path class="cls-1" d="M157.64,18.69h6.24V36.11l6.24-8.62h7.33l-6.88,9.22,6.88,13.62h-7.24l-4.31-9.18-2,2.76v6.42h-6.24Z"/><path class="cls-1" d="M191.94,34a10.59,10.59,0,0,0-5-1.52c-1.55,0-2.24.78-2.24,1.65s.46,1.1,1.33,1.65l3.3,1.93a6.88,6.88,0,0,1,3.76,6.19c0,3.94-2.94,7-8.39,7a16.14,16.14,0,0,1-6-1.15V43.45a10.37,10.37,0,0,0,5.5,2c1.6,0,2.38-.74,2.38-1.7,0-.74-.41-1.33-1.51-2l-3.58-2.07a6.49,6.49,0,0,1-3.3-5.87c0-4,3.12-6.83,8.49-6.83a19.07,19.07,0,0,1,5.22.78Z"/><path class="cls-1" d="M127.47,27a12.15,12.15,0,0,0-4.46.83l3.83-9.45L83.35.77,77.12,16.13l1.14,3.3,1,2.81,5.41,15.35,7.28-19.23h5.46l.81,2.19,6.33,17.05,2-5.45,5-13.79h7.08L104.59,55l-2.08-5.21-8-20.07L84.23,55,73.14,26l-.93,2.3-1.09,2.68a22.84,22.84,0,0,0-.79,2.28h0A23.46,23.46,0,0,0,114.6,48.57l2-4.84a11.89,11.89,0,0,0,22.78-4.82A11.71,11.71,0,0,0,127.47,27Zm0,17.7a5.81,5.81,0,0,1,0-11.6,5.55,5.55,0,0,1,5.5,5.78A5.59,5.59,0,0,1,127.47,44.73Z"/><line class="cls-2" x1="90.99" y1="20.82" x2="87.25" y2="30.7"/><line class="cls-2" x1="101.49" y1="29.34" x2="98.3" y2="20.82"/></svg>