<svg xmlns="http://www.w3.org/2000/svg" id="Layer_1" viewBox="0 0 36 36" width="36" height="36"><defs><style>.cls-1{fill:#f5f3f5}.cls-2{fill:none}</style></defs><path d="M29.33 9.81a5.55 5.55 0 0 0 2.52-3.32A10.16 10.16 0 0 1 28 8c-1.25-1.72-4.42-2.53-6.85-1.35-2 1-4 3-3.4 6.8A16.59 16.59 0 0 1 5.43 7.1a5.93 5.93 0 0 0 1.77 8.07 4.24 4.24 0 0 1-2.73-.74 6.11 6.11 0 0 0 4.87 6 4.78 4.78 0 0 1-2.74.13 5.89 5.89 0 0 0 5.65 4.18 12.12 12.12 0 0 1-8.89 2.44c5.69 4 14.11 3.6 19.4-.45a17.2 17.2 0 0 0 7-14.7 6.72 6.72 0 0 0 2.93-3.14 6.74 6.74 0 0 1-3.36.92z" class="cls-1"/><path d="M0 0h36v36H0z" class="cls-2"/></svg>